<svg width="140" height="42" viewBox="0 0 130 32" fill="none" xmlns="http://www.w3.org/2000/svg">
<path d="M5.59782 12.6608C6.04866 12.6608 6.42435 12.6045 6.7249 12.4918C7.03798 12.3666 7.27592 12.1787 7.43872 11.9282C7.60152 11.6778 7.68292 11.3584 7.68292 10.9702C7.68292 10.6321 7.59526 10.3503 7.41993 10.1249C7.25713 9.89951 7.01919 9.7054 6.70612 9.5426C6.40556 9.3798 6.04865 9.22952 5.63539 9.09177C5.22213 8.95401 4.75878 8.81626 4.24533 8.6785C3.76945 8.52823 3.29984 8.3529 2.83648 8.15253C2.37313 7.93964 1.9536 7.67666 1.57791 7.36358C1.20222 7.03798 0.901663 6.63724 0.676247 6.16136C0.463354 5.68548 0.356908 5.10316 0.356908 4.41439C0.356908 3.57534 0.557278 2.86779 0.958017 2.29173C1.37128 1.70314 1.91603 1.25857 2.59228 0.958017C3.28105 0.64494 4.02618 0.488401 4.82765 0.488401C5.51642 0.488401 6.12379 0.582324 6.64976 0.77017C7.17573 0.945494 7.63283 1.25231 8.02104 1.69062C8.42178 2.12893 8.75364 2.73003 9.01663 3.49394L8.05861 3.36245L8.4343 0.676247H9.82437V4.20776H8.1901C8.03983 3.73188 7.81441 3.33114 7.51386 3.00554C7.22582 2.67994 6.8877 2.43574 6.49949 2.27294C6.12379 2.09762 5.70427 2.00996 5.24091 2.00996C4.84018 2.00996 4.49579 2.07257 4.20776 2.1978C3.93225 2.31051 3.71936 2.47957 3.56908 2.70499C3.4188 2.9304 3.34367 3.19965 3.34367 3.51273C3.34367 3.82581 3.42507 4.08879 3.58787 4.30168C3.76319 4.51458 3.99487 4.69616 4.2829 4.84644C4.58345 4.98419 4.92784 5.10942 5.31605 5.22213C5.70427 5.33484 6.12379 5.44755 6.57463 5.56025C7.11312 5.71053 7.63283 5.88585 8.13375 6.08622C8.63467 6.28659 9.07924 6.54958 9.46746 6.87518C9.8682 7.18826 10.1813 7.58273 10.4067 8.05861C10.6321 8.52197 10.7448 9.09803 10.7448 9.7868C10.7448 10.6759 10.5444 11.4524 10.1437 12.1161C9.75549 12.7798 9.19821 13.2933 8.47187 13.6564C7.74553 14.0196 6.88144 14.2012 5.87959 14.2012C5.15325 14.2012 4.45822 14.0885 3.7945 13.8631C3.1433 13.6376 2.55471 13.2682 2.02874 12.7548C1.51529 12.2413 1.10829 11.5463 0.80774 10.6697L1.85968 10.8575L1.48399 14.0133H0V9.82437H1.74697C1.97239 10.413 2.2792 10.9201 2.66742 11.3459C3.05564 11.7717 3.50021 12.0973 4.00113 12.3227C4.51458 12.5481 5.04681 12.6608 5.59782 12.6608Z" fill="black"/>
<path d="M19.3871 7.2133L19.0677 7.06303L20.7771 14.0133H24.0644L26.0556 6.36799C26.1182 6.16762 26.1996 6.01109 26.2998 5.89838C26.4 5.78567 26.519 5.70427 26.6567 5.65418C26.7945 5.59156 26.9385 5.56025 27.0888 5.56025H27.1076V4.39561H23.4821V5.56025H23.5197C23.7075 5.56025 23.8829 5.57904 24.0457 5.61661C24.221 5.64165 24.3587 5.68548 24.4589 5.7481C24.5716 5.81072 24.628 5.87959 24.628 5.95473L22.8622 12.8675L23.4821 12.1537L21.4722 4.39561H18.7484L16.5882 12.9238L17.1329 12.1724L15.5738 5.72932C15.5738 5.67922 15.6301 5.64792 15.7429 5.63539C15.8681 5.61035 16.0184 5.59156 16.1937 5.57904C16.3815 5.56652 16.5756 5.56025 16.776 5.56025H16.7948V4.39561H11.2533V5.56025H11.2721C11.46 5.56025 11.6165 5.57904 11.7417 5.61661C11.867 5.65418 11.9734 5.71679 12.0611 5.80445C12.1612 5.89212 12.2301 6.01735 12.2677 6.18015L14.3528 14.0133H17.6213L19.3871 7.2133Z" fill="black"/>
<path d="M30.9183 9.24204C30.9183 9.79306 30.9684 10.2815 31.0686 10.7072C31.1813 11.133 31.3379 11.4962 31.5382 11.7968C31.7386 12.0848 32.0016 12.3039 32.3272 12.4542C32.6528 12.592 33.0285 12.6608 33.4543 12.6608C33.9051 12.6608 34.2871 12.5794 34.6001 12.4166C34.9257 12.2413 35.2012 12.0222 35.4267 11.7592C35.6646 11.4837 35.8587 11.2082 36.009 10.9327L37.23 11.778C36.9795 12.2413 36.6602 12.6608 36.272 13.0365C35.8838 13.3997 35.4141 13.6877 34.8631 13.9006C34.3246 14.101 33.6797 14.2012 32.9283 14.2012C31.8388 14.2012 30.8808 14.0008 30.0543 13.6001C29.2402 13.1993 28.6078 12.6295 28.157 11.8907C27.7062 11.1393 27.4808 10.2502 27.4808 9.22326C27.4808 8.22141 27.6999 7.34479 28.1382 6.59341C28.5891 5.84202 29.1964 5.2597 29.9603 4.84644C30.7368 4.42065 31.6134 4.20776 32.5902 4.20776C33.3791 4.20776 34.0679 4.32673 34.6565 4.56467C35.2576 4.79008 35.7585 5.13447 36.1593 5.59782C36.5725 6.06118 36.8793 6.6435 37.0797 7.34479C37.2926 8.03356 37.399 8.8413 37.399 9.76801H30.5427V8.41552H34.6189L34.2057 8.97906C34.1931 8.34038 34.1556 7.81441 34.0929 7.40115C34.0303 6.97536 33.9364 6.63724 33.8112 6.38678C33.6859 6.13632 33.5294 5.96099 33.3416 5.86081C33.1537 5.7481 32.9283 5.69175 32.6653 5.69175C32.4023 5.69175 32.1644 5.76062 31.9515 5.89838C31.7511 6.03613 31.5695 6.24902 31.4067 6.53706C31.2565 6.82509 31.1375 7.19452 31.0498 7.64535C30.9622 8.08366 30.9183 8.61589 30.9183 9.24204Z" fill="black"/>
<path d="M41.98 9.24204C41.98 9.79306 42.0301 10.2815 42.1303 10.7072C42.243 11.133 42.3995 11.4962 42.5999 11.7968C42.8003 12.0848 43.0633 12.3039 43.3889 12.4542C43.7145 12.592 44.0901 12.6608 44.5159 12.6608C44.9668 12.6608 45.3487 12.5794 45.6618 12.4166C45.9874 12.2413 46.2629 12.0222 46.4883 11.7592C46.7263 11.4837 46.9204 11.2082 47.0706 10.9327L48.2916 11.778C48.0412 12.2413 47.7218 12.6608 47.3336 13.0365C46.9454 13.3997 46.4758 13.6877 45.9248 13.9006C45.3863 14.101 44.7413 14.2012 43.99 14.2012C42.9005 14.2012 41.9424 14.0008 41.1159 13.6001C40.3019 13.1993 39.6695 12.6295 39.2187 11.8907C38.7678 11.1393 38.5424 10.2502 38.5424 9.22326C38.5424 8.22141 38.7616 7.34479 39.1999 6.59341C39.6507 5.84202 40.2581 5.2597 41.022 4.84644C41.7984 4.42065 42.675 4.20776 43.6518 4.20776C44.4408 4.20776 45.1296 4.32673 45.7181 4.56467C46.3193 4.79008 46.8202 5.13447 47.2209 5.59782C47.6342 6.06118 47.941 6.6435 48.1414 7.34479C48.3543 8.03356 48.4607 8.8413 48.4607 9.76801H41.6043V8.41552H45.6806L45.2673 8.97906C45.2548 8.34038 45.2172 7.81441 45.1546 7.40115C45.092 6.97536 44.9981 6.63724 44.8728 6.38678C44.7476 6.13632 44.5911 5.96099 44.4032 5.86081C44.2154 5.7481 43.99 5.69175 43.727 5.69175C43.464 5.69175 43.2261 5.76062 43.0132 5.89838C42.8128 6.03613 42.6312 6.24902 42.4684 6.53706C42.3181 6.82509 42.1992 7.19452 42.1115 7.64535C42.0238 8.08366 41.98 8.61589 41.98 9.24204Z" fill="black"/>
<path d="M49.0226 5.76689V4.48953H49.079C49.3545 4.48953 49.5924 4.47074 49.7928 4.43317C49.9932 4.38308 50.1497 4.30168 50.2624 4.18898C50.3751 4.07627 50.4315 3.90721 50.4315 3.68179L52.4226 4.39561H56.1796V5.76689H49.0226ZM53.7376 10.6697C53.7376 11.1581 53.7877 11.5463 53.8879 11.8343C54.0006 12.1098 54.1571 12.3102 54.3575 12.4354C54.5578 12.5481 54.8083 12.6045 55.1089 12.6045C55.3468 12.6045 55.5722 12.5794 55.7851 12.5294C55.998 12.4793 56.1608 12.4354 56.2735 12.3979V13.8631C56.1733 13.9132 56.023 13.9633 55.8227 14.0133C55.6223 14.0634 55.3844 14.1073 55.1089 14.1448C54.8459 14.1824 54.5516 14.2012 54.226 14.2012C53.4871 14.2012 52.8171 14.0947 52.216 13.8819C51.6274 13.669 51.1641 13.312 50.826 12.8111C50.4878 12.2977 50.3188 11.6089 50.3188 10.7448V4.75251L50.4315 4.62102L50.4503 1.78454H53.7376V10.6697Z" fill="black"/>
<path d="M68.7691 0.676247C69.5581 0.676247 70.2531 0.751386 70.8542 0.901663C71.4678 1.05194 71.975 1.27109 72.3758 1.55913C72.789 1.83463 73.1021 2.17276 73.315 2.5735C73.5279 2.97424 73.6343 3.42507 73.6343 3.92599C73.6343 4.60224 73.4527 5.17204 73.0896 5.63539C72.7389 6.09875 72.2443 6.44939 71.6056 6.68733C70.9794 6.92527 70.2468 7.06302 69.4078 7.10059L70.1967 6.70612V7.26966L69.5581 6.83761C70.4722 6.86266 71.2737 7.01293 71.9625 7.28844C72.6638 7.55143 73.2085 7.93338 73.5968 8.4343C73.985 8.9227 74.1791 9.53008 74.1791 10.2564C74.1791 10.845 74.0601 11.371 73.8222 11.8343C73.5968 12.2977 73.2586 12.6922 72.8078 13.0178C72.3695 13.3434 71.8247 13.5938 71.1735 13.7691C70.5223 13.9319 69.7772 14.0133 68.9382 14.0133H61.9127V12.7548H62.1006C62.4387 12.7548 62.7079 12.7109 62.9083 12.6233C63.1212 12.5356 63.2276 12.354 63.2276 12.0785V2.61106C63.2276 2.33556 63.1212 2.15397 62.9083 2.06631C62.7079 1.97865 62.4387 1.93482 62.1006 1.93482H61.9127V0.676247H68.7691ZM66.252 6.36799H67.905C68.4185 6.36799 68.8255 6.28033 69.126 6.10501C69.4391 5.92968 69.6645 5.67922 69.8023 5.35362C69.94 5.0155 70.0089 4.60224 70.0089 4.11384C70.0089 3.67553 69.9338 3.31236 69.7835 3.02433C69.6332 2.72377 69.4078 2.49836 69.1072 2.34808C68.8067 2.18528 68.431 2.10388 67.9801 2.10388H66.8531V12.5857H68.1116C68.6251 12.5857 69.0571 12.498 69.4078 12.3227C69.771 12.1474 70.0402 11.8782 70.2155 11.515C70.4034 11.1518 70.4973 10.6885 70.4973 10.1249C70.4973 9.63652 70.4096 9.217 70.2343 8.86635C70.0715 8.50318 69.8085 8.22767 69.4454 8.03983C69.0822 7.83946 68.6126 7.73927 68.0365 7.73927H66.252V6.36799Z" fill="black"/>
<path d="M79.0173 9.24204C79.0173 9.79306 79.0674 10.2815 79.1676 10.7072C79.2803 11.133 79.4368 11.4962 79.6372 11.7968C79.8376 12.0848 80.1005 12.3039 80.4261 12.4542C80.7517 12.592 81.1274 12.6608 81.5532 12.6608C82.0041 12.6608 82.386 12.5794 82.6991 12.4166C83.0247 12.2413 83.3002 12.0222 83.5256 11.7592C83.7635 11.4837 83.9577 11.2082 84.1079 10.9327L85.3289 11.778C85.0785 12.2413 84.7591 12.6608 84.3709 13.0365C83.9827 13.3997 83.5131 13.6877 82.9621 13.9006C82.4236 14.101 81.7786 14.2012 81.0273 14.2012C79.9377 14.2012 78.9797 14.0008 78.1532 13.6001C77.3392 13.1993 76.7068 12.6295 76.256 11.8907C75.8051 11.1393 75.5797 10.2502 75.5797 9.22326C75.5797 8.22141 75.7989 7.34479 76.2372 6.59341C76.688 5.84202 77.2954 5.2597 78.0593 4.84644C78.8357 4.42065 79.7123 4.20776 80.6891 4.20776C81.4781 4.20776 82.1669 4.32673 82.7554 4.56467C83.3566 4.79008 83.8575 5.13447 84.2582 5.59782C84.6715 6.06118 84.9783 6.6435 85.1787 7.34479C85.3915 8.03356 85.498 8.8413 85.498 9.76801H78.6416V8.41552H82.7179L82.3046 8.97906C82.2921 8.34038 82.2545 7.81441 82.1919 7.40115C82.1293 6.97536 82.0354 6.63724 81.9101 6.38678C81.7849 6.13632 81.6284 5.96099 81.4405 5.86081C81.2527 5.7481 81.0273 5.69175 80.7643 5.69175C80.5013 5.69175 80.2634 5.76062 80.0505 5.89838C79.8501 6.03613 79.6685 6.24902 79.5057 6.53706C79.3554 6.82509 79.2365 7.19452 79.1488 7.64535C79.0611 8.08366 79.0173 8.61589 79.0173 9.24204Z" fill="black"/>
<path d="M94.1185 4.35804V7.28844C94.0309 7.25087 93.9244 7.22582 93.7992 7.2133C93.674 7.18826 93.5425 7.16947 93.4047 7.15695C93.2795 7.14443 93.148 7.13816 93.0102 7.13816C92.7222 7.13816 92.453 7.16947 92.2025 7.23209C91.952 7.28218 91.7204 7.36984 91.5075 7.49507C91.3071 7.60778 91.1255 7.76432 90.9627 7.96469C90.7999 8.16506 90.6496 8.40926 90.5119 8.69729V7.589C90.6872 6.93779 90.8938 6.36799 91.1318 5.87959C91.3697 5.37867 91.6703 4.99045 92.0334 4.71494C92.3966 4.42691 92.86 4.2829 93.4235 4.2829C93.5738 4.2829 93.7115 4.28916 93.8368 4.30168C93.962 4.31421 94.0559 4.33299 94.1185 4.35804ZM86.4732 14.0133V12.8299H86.492C86.78 12.8299 87.0179 12.7923 87.2058 12.7172C87.3936 12.6421 87.4876 12.4918 87.4876 12.2664V6.29286C87.4876 6.1551 87.4563 6.05492 87.3936 5.9923C87.331 5.91716 87.2371 5.85455 87.1119 5.80445C86.9866 5.75436 86.8238 5.70427 86.6235 5.65418L86.4732 5.61661V4.39561H90.6809V7.43872L90.9064 7.2133V12.4918C90.9064 12.592 90.9752 12.6671 91.113 12.7172C91.2633 12.7673 91.4323 12.7986 91.6202 12.8111C91.808 12.8236 91.9771 12.8299 92.1274 12.8299H92.2776V14.0133H86.4732Z" fill="black"/>
<path d="M102.667 4.35804V7.28844C102.579 7.25087 102.473 7.22582 102.348 7.2133C102.222 7.18826 102.091 7.16947 101.953 7.15695C101.828 7.14443 101.696 7.13816 101.559 7.13816C101.271 7.13816 101.001 7.16947 100.751 7.23209C100.501 7.28218 100.269 7.36984 100.056 7.49507C99.8556 7.60778 99.674 7.76432 99.5112 7.96469C99.3484 8.16506 99.1981 8.40926 99.0604 8.69729V7.589C99.2357 6.93779 99.4423 6.36799 99.6803 5.87959C99.9182 5.37867 100.219 4.99045 100.582 4.71494C100.945 4.42691 101.408 4.2829 101.972 4.2829C102.122 4.2829 102.26 4.28916 102.385 4.30168C102.51 4.31421 102.604 4.33299 102.667 4.35804ZM95.0217 14.0133V12.8299H95.0405C95.3285 12.8299 95.5664 12.7923 95.7543 12.7172C95.9421 12.6421 96.036 12.4918 96.036 12.2664V6.29286C96.036 6.1551 96.0047 6.05492 95.9421 5.9923C95.8795 5.91716 95.7856 5.85455 95.6603 5.80445C95.5351 5.75436 95.3723 5.70427 95.1719 5.65418L95.0217 5.61661V4.39561H99.2294V7.43872L99.4548 7.2133V12.4918C99.4548 12.592 99.5237 12.6671 99.6615 12.7172C99.8118 12.7673 99.9808 12.7986 100.169 12.8111C100.356 12.8236 100.526 12.8299 100.676 12.8299H100.826V14.0133H95.0217Z" fill="black"/>
<path d="M106.256 3.08068C105.68 3.08068 105.223 2.94919 104.885 2.6862C104.559 2.4107 104.397 2.02874 104.397 1.54034C104.397 1.05194 104.559 0.676248 104.885 0.413262C105.223 0.137754 105.68 0 106.256 0C106.82 0 107.264 0.137754 107.59 0.413262C107.928 0.676248 108.097 1.05194 108.097 1.54034C108.097 2.02874 107.928 2.4107 107.59 2.6862C107.264 2.94919 106.82 3.08068 106.256 3.08068ZM108.022 4.39561V12.2664C108.022 12.4918 108.116 12.6421 108.304 12.7172C108.492 12.7923 108.73 12.8299 109.018 12.8299H109.036V14.0133H103.57V12.8299H103.589C103.877 12.8299 104.115 12.7923 104.303 12.7172C104.491 12.6421 104.585 12.4918 104.585 12.2664V6.29286C104.585 6.09249 104.516 5.95473 104.378 5.87959C104.253 5.80445 104.034 5.72932 103.72 5.65418L103.57 5.61661V4.39561H108.022Z" fill="black"/>
<path d="M113.376 9.24204C113.376 9.79306 113.426 10.2815 113.527 10.7072C113.639 11.133 113.796 11.4962 113.996 11.7968C114.197 12.0848 114.46 12.3039 114.785 12.4542C115.111 12.592 115.486 12.6608 115.912 12.6608C116.363 12.6608 116.745 12.5794 117.058 12.4166C117.384 12.2413 117.659 12.0222 117.885 11.7592C118.123 11.4837 118.317 11.2082 118.467 10.9327L119.688 11.778C119.437 12.2413 119.118 12.6608 118.73 13.0365C118.342 13.3997 117.872 13.6877 117.321 13.9006C116.783 14.101 116.138 14.2012 115.386 14.2012C114.297 14.2012 113.339 14.0008 112.512 13.6001C111.698 13.1993 111.066 12.6295 110.615 11.8907C110.164 11.1393 109.939 10.2502 109.939 9.22326C109.939 8.22141 110.158 7.34479 110.596 6.59341C111.047 5.84202 111.654 5.2597 112.418 4.84644C113.195 4.42065 114.071 4.20776 115.048 4.20776C115.837 4.20776 116.526 4.32673 117.114 4.56467C117.716 4.79008 118.216 5.13447 118.617 5.59782C119.03 6.06118 119.337 6.6435 119.538 7.34479C119.751 8.03356 119.857 8.8413 119.857 9.76801H113.001V8.41552H117.077L116.664 8.97906C116.651 8.34038 116.614 7.81441 116.551 7.40115C116.488 6.97536 116.394 6.63724 116.269 6.38678C116.144 6.13632 115.987 5.96099 115.8 5.86081C115.612 5.7481 115.386 5.69175 115.123 5.69175C114.86 5.69175 114.622 5.76062 114.409 5.89838C114.209 6.03613 114.028 6.24902 113.865 6.53706C113.714 6.82509 113.595 7.19452 113.508 7.64535C113.42 8.08366 113.376 8.61589 113.376 9.24204Z" fill="black"/>
<path d="M126.562 11.684C126.562 11.4712 126.499 11.3021 126.374 11.1769C126.261 11.0391 126.098 10.9264 125.885 10.8387C125.685 10.7386 125.453 10.6572 125.19 10.5945C124.927 10.5194 124.645 10.438 124.345 10.3503C123.969 10.2502 123.587 10.1374 123.199 10.0122C122.811 9.87446 122.454 9.69914 122.128 9.48624C121.803 9.26083 121.54 8.9728 121.339 8.62215C121.152 8.25898 121.058 7.80189 121.058 7.25087C121.058 6.58715 121.233 6.02361 121.584 5.56025C121.947 5.0969 122.441 4.75251 123.068 4.5271C123.706 4.28916 124.451 4.17019 125.303 4.17019C126.004 4.17019 126.605 4.22654 127.106 4.33925C127.607 4.43944 128.014 4.55841 128.327 4.69616C128.64 4.83391 128.86 4.95288 128.985 5.05307V7.00667H126.637V5.37241C126.825 5.35988 126.969 5.38493 127.069 5.44755C127.169 5.49764 127.232 5.57278 127.257 5.67296C127.282 5.76062 127.275 5.85455 127.238 5.95473C127.213 6.05492 127.175 6.1551 127.125 6.25529C126.987 6.10501 126.831 5.97978 126.655 5.87959C126.48 5.76689 126.28 5.68548 126.054 5.63539C125.841 5.5853 125.597 5.56025 125.322 5.56025C124.858 5.56025 124.508 5.64792 124.27 5.82324C124.032 5.99856 123.913 6.2365 123.913 6.53706C123.913 6.74995 123.976 6.92527 124.101 7.06303C124.226 7.20078 124.395 7.31975 124.608 7.41993C124.833 7.52012 125.084 7.60778 125.359 7.68292C125.647 7.75806 125.948 7.8332 126.261 7.90833C126.649 8.02104 127.037 8.14627 127.426 8.28403C127.826 8.40926 128.19 8.58458 128.515 8.81C128.853 9.03541 129.122 9.32344 129.323 9.67409C129.523 10.0122 129.623 10.4317 129.623 10.9327C129.623 11.634 129.442 12.2288 129.079 12.7172C128.728 13.1931 128.202 13.5625 127.501 13.8255C126.812 14.076 125.96 14.2012 124.946 14.2012C124.27 14.2012 123.656 14.1448 123.105 14.0321C122.567 13.9319 122.097 13.8067 121.696 13.6564C121.308 13.4936 121.001 13.3434 120.776 13.2056V11.0642H123.18V13.2432C122.955 13.1305 122.78 13.0115 122.654 12.8863C122.529 12.7485 122.448 12.617 122.41 12.4918C122.385 12.354 122.391 12.2413 122.429 12.1537C122.479 12.0535 122.56 11.9971 122.673 11.9846C122.848 12.1724 123.049 12.329 123.274 12.4542C123.512 12.5794 123.769 12.6671 124.044 12.7172C124.32 12.7673 124.627 12.7923 124.965 12.7923C125.303 12.7923 125.585 12.7548 125.81 12.6796C126.048 12.6045 126.23 12.4855 126.355 12.3227C126.493 12.1474 126.562 11.9345 126.562 11.684Z" fill="black"/>
<path d="M22.6721 26.9385C22.6721 27.7874 22.9022 28.4812 23.3623 29.0198C23.826 29.5584 24.4627 29.8277 25.2724 29.8277C26.0215 29.8277 26.5904 29.6262 26.9792 29.2231C27.368 28.8165 27.5624 28.3635 27.5624 27.8641V27.8374H26.5993V27.8641C26.5993 28.1673 26.4941 28.4348 26.2837 28.6667C26.0732 28.8985 25.7361 29.0145 25.2724 29.0145C24.7303 29.0145 24.3308 28.8147 24.0739 28.4152C23.8171 28.0121 23.6887 27.5199 23.6887 26.9385V26.7673C23.6887 26.1859 23.8171 25.6954 24.0739 25.2959C24.3308 24.8928 24.7303 24.6913 25.2724 24.6913C25.7361 24.6913 26.0732 24.8072 26.2837 25.0391C26.4941 25.2709 26.5993 25.5384 26.5993 25.8416V25.8684H27.5624V25.8416C27.5624 25.3423 27.368 24.891 26.9792 24.488C26.5904 24.0813 26.0215 23.878 25.2724 23.878C24.4627 23.878 23.826 24.1473 23.3623 24.6859C22.9022 25.2246 22.6721 25.9183 22.6721 26.7673V26.9385Z" fill="black"/>
<path d="M29.263 26.9385C29.263 27.7874 29.5038 28.4812 29.9853 29.0198C30.4669 29.5584 31.1107 29.8277 31.9168 29.8277C32.723 29.8277 33.3668 29.5584 33.8483 29.0198C34.3299 28.4812 34.5706 27.7874 34.5706 26.9385V26.7673C34.5706 25.9183 34.3299 25.2246 33.8483 24.6859C33.3668 24.1473 32.723 23.878 31.9168 23.878C31.1107 23.878 30.4669 24.1473 29.9853 24.6859C29.5038 25.2246 29.263 25.9183 29.263 26.7673V26.9385ZM30.2796 26.7673C30.2796 26.1859 30.4169 25.6954 30.6916 25.2959C30.9662 24.8928 31.3747 24.6913 31.9168 24.6913C32.459 24.6913 32.8674 24.8928 33.1421 25.2959C33.4167 25.6954 33.5541 26.1859 33.5541 26.7673V26.9385C33.5541 27.5199 33.4167 28.0121 33.1421 28.4152C32.8674 28.8147 32.459 29.0145 31.9168 29.0145C31.3747 29.0145 30.9662 28.8147 30.6916 28.4152C30.4169 28.0121 30.2796 27.5199 30.2796 26.9385V26.7673Z" fill="black"/>
<path d="M36.3568 26.9385C36.3568 27.7874 36.5976 28.4812 37.0792 29.0198C37.5607 29.5584 38.2045 29.8277 39.0107 29.8277C39.8168 29.8277 40.4606 29.5584 40.9422 29.0198C41.4237 28.4812 41.6645 27.7874 41.6645 26.9385V26.7673C41.6645 25.9183 41.4237 25.2246 40.9422 24.6859C40.4606 24.1473 39.8168 23.878 39.0107 23.878C38.2045 23.878 37.5607 24.1473 37.0792 24.6859C36.5976 25.2246 36.3568 25.9183 36.3568 26.7673V26.9385ZM37.3734 26.7673C37.3734 26.1859 37.5108 25.6954 37.7854 25.2959C38.0601 24.8928 38.4685 24.6913 39.0107 24.6913C39.5528 24.6913 39.9613 24.8928 40.2359 25.2959C40.5106 25.6954 40.6479 26.1859 40.6479 26.7673V26.9385C40.6479 27.5199 40.5106 28.0121 40.2359 28.4152C39.9613 28.8147 39.5528 29.0145 39.0107 29.0145C38.4685 29.0145 38.0601 28.8147 37.7854 28.4152C37.5108 28.0121 37.3734 27.5199 37.3734 26.9385V26.7673Z" fill="black"/>
<path d="M43.7878 29.6672H44.7829V27.7946L48.3196 24.0385H47.1906L44.7829 26.6282V21.4489H43.7878V29.6672ZM47.4154 29.6672H48.5817L45.8423 26.0717L45.2217 26.7566L47.4154 29.6672Z" fill="black"/>
<path d="M50.2128 29.6672H51.208V24.0385H50.2128V29.6672ZM50.0897 22.3371C50.0897 22.5047 50.1432 22.6456 50.2502 22.7598C50.3572 22.8739 50.5106 22.931 50.7104 22.931C50.9101 22.931 51.0635 22.8739 51.1705 22.7598C51.2775 22.6456 51.331 22.5047 51.331 22.3371C51.331 22.1695 51.2775 22.0286 51.1705 21.9144C51.0635 21.8003 50.9101 21.7432 50.7104 21.7432C50.5106 21.7432 50.3572 21.8003 50.2502 21.9144C50.1432 22.0286 50.0897 22.1695 50.0897 22.3371Z" fill="black"/>
<path d="M53.7165 29.6672H54.7116V25.6865C54.8472 25.4154 55.0362 25.1942 55.2788 25.023C55.5213 24.8518 55.8013 24.7662 56.1188 24.7662C56.4898 24.7662 56.7751 24.8643 56.9749 25.0605C57.1782 25.2531 57.2799 25.5741 57.2799 26.0236V29.6672H58.275V26.0343C58.275 25.2781 58.1056 24.7395 57.7667 24.4184C57.4314 24.0938 56.9802 23.9315 56.4131 23.9315C56.0564 23.9315 55.73 24.0064 55.434 24.1563C55.1415 24.3025 54.8936 24.504 54.6902 24.7609H54.6581L54.6153 24.0385H53.7165V29.6672Z" fill="black"/>
<path d="M60.5535 31.1867C60.8246 31.4222 61.1563 31.6166 61.5487 31.7699C61.941 31.9233 62.3691 32 62.8328 32C63.5818 32 64.19 31.7895 64.6573 31.3686C65.1245 30.9477 65.3582 30.3449 65.3582 29.5602V24.0385H64.4593L64.4165 24.7716H64.3844C64.2417 24.5397 64.0223 24.3417 63.7263 24.1777C63.4338 24.0136 63.0914 23.9315 62.699 23.9315C61.9856 23.9315 61.4149 24.1991 60.9869 24.7341C60.5588 25.2691 60.3448 25.9469 60.3448 26.7673V26.9385C60.3448 27.7589 60.5588 28.4366 60.9869 28.9716C61.4149 29.5067 61.9856 29.7742 62.699 29.7742C63.0914 29.7742 63.4249 29.7047 63.6995 29.5655C63.9778 29.4229 64.1989 29.2356 64.363 29.0038V29.5602C64.363 30.0596 64.2239 30.4466 63.9457 30.7212C63.6674 30.9959 63.2875 31.1332 62.806 31.1332C62.4493 31.1332 62.1283 31.0619 61.8429 30.9192C61.5576 30.7801 61.3364 30.6196 61.1795 30.4377L60.5535 31.1867ZM61.3614 26.9385V26.7673C61.3614 26.1966 61.4862 25.7168 61.7359 25.328C61.9856 24.9392 62.378 24.7448 62.913 24.7448C63.2697 24.7448 63.5729 24.8429 63.8226 25.0391C64.0723 25.2353 64.2524 25.4582 64.363 25.7079V27.9979C64.2524 28.2476 64.0723 28.4705 63.8226 28.6667C63.5729 28.8629 63.2697 28.9609 62.913 28.9609C62.378 28.9609 61.9856 28.7666 61.7359 28.3778C61.4862 27.989 61.3614 27.5092 61.3614 26.9385Z" fill="black"/>
<path d="M71.0065 28.0086V28.0353C71.0065 28.5775 71.2027 29.0127 71.5951 29.3408C71.9874 29.6654 72.5582 29.8277 73.3072 29.8277C74.0563 29.8277 74.6181 29.6672 74.9926 29.3462C75.3671 29.0252 75.5544 28.615 75.5544 28.1156C75.5544 27.6162 75.3885 27.2328 75.0568 26.9652C74.7286 26.6977 74.2614 26.4926 73.655 26.3499C73.0486 26.2073 72.642 26.0735 72.4351 25.9487C72.2282 25.8238 72.1248 25.6544 72.1248 25.4404C72.1248 25.2263 72.2139 25.048 72.3923 24.9053C72.5742 24.7626 72.8613 24.6913 73.2537 24.6913C73.6461 24.6913 73.935 24.768 74.1205 24.9214C74.3095 25.0747 74.4041 25.2852 74.4041 25.5527V25.6009H75.3939V25.5741C75.3939 25.0533 75.1977 24.6414 74.8053 24.3382C74.413 24.0314 73.8958 23.878 73.2537 23.878C72.6117 23.878 72.098 24.0314 71.7128 24.3382C71.3311 24.6449 71.1403 25.0302 71.1403 25.4939C71.1403 25.9576 71.3186 26.3196 71.6753 26.58C72.032 26.8368 72.5136 27.0366 73.1199 27.1793C73.7263 27.3219 74.1205 27.461 74.3024 27.5966C74.4843 27.7286 74.5753 27.9194 74.5753 28.1691C74.5753 28.4188 74.4611 28.6221 74.2328 28.779C74.0081 28.936 73.6996 29.0145 73.3072 29.0145C72.9148 29.0145 72.5992 28.9324 72.3602 28.7683C72.1212 28.6043 72.0017 28.3599 72.0017 28.0353V28.0086H71.0065Z" fill="black"/>
<path d="M77.3138 26.9385C77.3138 27.7874 77.5439 28.4812 78.0041 29.0198C78.4678 29.5584 79.1045 29.8277 79.9142 29.8277C80.6632 29.8277 81.2321 29.6262 81.6209 29.2231C82.0098 28.8165 82.2041 28.3635 82.2041 27.8641V27.8374H81.2411V27.8641C81.2411 28.1673 81.1358 28.4348 80.9254 28.6667C80.7149 28.8985 80.3779 29.0145 79.9142 29.0145C79.372 29.0145 78.9725 28.8147 78.7157 28.4152C78.4588 28.0121 78.3304 27.5199 78.3304 26.9385V26.7673C78.3304 26.1859 78.4588 25.6954 78.7157 25.2959C78.9725 24.8928 79.372 24.6913 79.9142 24.6913C80.3779 24.6913 80.7149 24.8072 80.9254 25.0391C81.1358 25.2709 81.2411 25.5384 81.2411 25.8416V25.8684H82.2041V25.8416C82.2041 25.3423 82.0098 24.891 81.6209 24.488C81.2321 24.0813 80.6632 23.878 79.9142 23.878C79.1045 23.878 78.4678 24.1473 78.0041 24.6859C77.5439 25.2246 77.3138 25.9183 77.3138 26.7673V26.9385Z" fill="black"/>
<path d="M84.2418 29.6672H85.237V25.6865C85.3725 25.4154 85.5616 25.1942 85.8041 25.023C86.0467 24.8518 86.3267 24.7662 86.6442 24.7662C87.0151 24.7662 87.3005 24.8643 87.5002 25.0605C87.7035 25.2531 87.8052 25.5741 87.8052 26.0236V29.6672H88.8004V26.0343C88.8004 25.2781 88.631 24.7395 88.2921 24.4184C87.9568 24.0938 87.527 23.9315 87.0026 23.9315C86.6388 23.9315 86.3035 24.0047 85.9967 24.1509C85.69 24.2971 85.4367 24.4915 85.237 24.7341V21.4489H84.2418V29.6672Z" fill="black"/>
<path d="M90.8702 26.9385C90.8702 27.7874 91.1109 28.4812 91.5925 29.0198C92.074 29.5584 92.7178 29.8277 93.524 29.8277C94.3301 29.8277 94.9739 29.5584 95.4555 29.0198C95.937 28.4812 96.1778 27.7874 96.1778 26.9385V26.7673C96.1778 25.9183 95.937 25.2246 95.4555 24.6859C94.9739 24.1473 94.3301 23.878 93.524 23.878C92.7178 23.878 92.074 24.1473 91.5925 24.6859C91.1109 25.2246 90.8702 25.9183 90.8702 26.7673V26.9385ZM91.8867 26.7673C91.8867 26.1859 92.0241 25.6954 92.2987 25.2959C92.5734 24.8928 92.9818 24.6913 93.524 24.6913C94.0661 24.6913 94.4746 24.8928 94.7492 25.2959C95.0239 25.6954 95.1612 26.1859 95.1612 26.7673V26.9385C95.1612 27.5199 95.0239 28.0121 94.7492 28.4152C94.4746 28.8147 94.0661 29.0145 93.524 29.0145C92.9818 29.0145 92.5734 28.8147 92.2987 28.4152C92.0241 28.0121 91.8867 27.5199 91.8867 26.9385V26.7673Z" fill="black"/>
<path d="M97.964 26.9385C97.964 27.7874 98.2048 28.4812 98.6863 29.0198C99.1678 29.5584 99.8117 29.8277 100.618 29.8277C101.424 29.8277 102.068 29.5584 102.549 29.0198C103.031 28.4812 103.272 27.7874 103.272 26.9385V26.7673C103.272 25.9183 103.031 25.2246 102.549 24.6859C102.068 24.1473 101.424 23.878 100.618 23.878C99.8117 23.878 99.1678 24.1473 98.6863 24.6859C98.2048 25.2246 97.964 25.9183 97.964 26.7673V26.9385ZM98.9806 26.7673C98.9806 26.1859 99.1179 25.6954 99.3926 25.2959C99.6672 24.8928 100.076 24.6913 100.618 24.6913C101.16 24.6913 101.568 24.8928 101.843 25.2959C102.118 25.6954 102.255 26.1859 102.255 26.7673V26.9385C102.255 27.5199 102.118 28.0121 101.843 28.4152C101.568 28.8147 101.16 29.0145 100.618 29.0145C100.076 29.0145 99.6672 28.8147 99.3926 28.4152C99.1179 28.0121 98.9806 27.5199 98.9806 26.9385V26.7673Z" fill="black"/>
<path d="M105.438 29.6672H106.433V21.4489H105.438V29.6672Z" fill="black"/>
</svg>
